<?xml version="1.0" encoding="UTF-8"?>
<svg version="1.1" viewBox="0 0 2000 2000" width="1280" height="1280" xmlns="http://www.w3.org/2000/svg">
<path transform="translate(0)" d="m0 0h2e3v2e3h-2e3z" fill="#FDFDFC"/>
<path transform="translate(1349,688)" d="m0 0h9l5 4 1 2 10-2h21l21 5 13 2 18 6 18 10 13 10 10 9 8 7 1 3 4 2 7 8 14 18 13 20 11 24 2 10v25l-4 17-8 20-4 8 1 4 6 17 4 9 7 20 3 6 7 10 8 14 10 21 10 28 8 28 5 22 6 29 6 44 4 40 3 47 1 42v43l-2 64-3 50-6 65-6 51-7 50-9 54-5 25-11 1 3 28 1 4 1 18h276l7 3 6 5 3 5 1 4v9l-3 7-8 7-3 2-5 1h-1715l-9-4-5-4-4-8-1-7 2-7 4-7 5-4 6-2h274v-509h-88v-43h196v-69l5-21 8-16 10-14 10-10 14-10 14-7 16-5 18-2h7l1-9 2-9 10-15 9-10 5-6 11-9 14-9 12-6 17-6 17-3 1-17 1-2 18-3 10-1h29l11 2v-14l10-6 9-12h1l1 41 2 6v9l-1 4 8-1h20l20 4 6 2 60 1 1 54 12 19 6 10v2h2l4 8 282 1v-42l-16 2h-21l-38-2-23-2-25-1v-2l-21-2-17-2-3-1-2-5v-20l5-21 3-9 4-2 85-8-11-1-5 1h-25l-2-1v-3h66l4 2 1-6 10-27 14-39 14-40 3-10v-11l-397 1-6 10h-2l-2 4-10 9-9 16h-2l-5-6-2-1h-6l-5 2-1 4v10l5 9 3 4-3 22-4 17-6 12-2 1h-48l-16-6-14-8-10-8-7-8-6-10-4-13-3-12-2-9v-24l5-15 6-11 9-11 3-1v-2l14-10 16-8 16-5 15-2h11l15 2 6 2 1-10 4-6 3-2h8l7 4 8 9 4 10v13l5-2 7 1 5 5 1 5h382l13 4 8 5 1-5 3-7 8-14 4-5 6-5 5-5 14-7v-15l4-2 1-3 11-7 8-6 11-6 18-8z" fill="#B6B8D1"/>
<path transform="translate(1349,688)" d="m0 0h9l5 4 1 2 10-2h21l21 5 13 2 18 6 18 10 13 10 10 9 8 7 1 3 4 2 7 8 14 18 13 20 11 24 2 10v25l-4 17-8 20-4 8 1 4 6 17 4 9 7 20v5l-20 4-42 10-9 2-6 2h-7v2l-17 3-14 4-41 9-12 3-22 5h-4l-14-19-10-13-14-19-10-13-14-19-2-1-1 5-17 36-13 23-11 16-1 68-4 10-4 6-7 7-9 5-9 2h-148l2 12 4 41 6 9 3 6 2 10-1 9 25 1v2h211l-2 13-6 28-13 1v50l-1 20-11 55-21 104-13 65h-1v-294h-372v42h22l34 2 36 4 28 5 23 6 15 6 11 6 7 5 6 10 4 19 3 22 4 67v101l-3 52-4 39-4 20h7l-1 13-6 36-1 2h-5l4 10 6 10 7 7 9 6 6 5 5 9 2 5v11l-4 6-3 2-34 2h-51l-7-3-4-6-1-4v-9l3-27 2-12 1-11-24-1-5-35-2-15h8l-8-45-28-164v-2l-58 1 9 6 7 10 1 4v14l-3 8-8 9-8 4-4 1h-86v19l-1 35-3 49-4 34-3 16h7l-5 36-3 15h-6l5 11 7 11 7 6 11 7 7 10 2 5v14l-3 5-3 2-34 2h-25v2l-2 1h-8l-4-1v-2h-12l-8-3-4-8v-15l1-9h-22v14l4 2 3 3 1 2v9l-4 6-5 2h-9l-5-5-2-3v-9l5-6 4-1v-14h-49v14l4 1 4 5 1 2v7l-3 5h-2l-1 3-2 1h-10l-6-5-1-2v-11l5-5 3-1v-14h-9v-20l2-1h55v-186l-1-12h-25l-4-4-1-2v-17h-95l-12-5-7-7-4-9v-16l6-11 7-6 7-3-10-4-7-6-5-9-1-3v-174h-60v529l-1 1h-47v-530h-88v-43h196v-69l5-21 8-16 10-14 10-10 14-10 14-7 16-5 18-2h7l1-9 2-9 10-15 9-10 5-6 11-9 14-9 12-6 17-6 17-3 1-17 1-2 18-3 10-1h29l11 2v-14l10-6 9-12h1l1 41 2 6v9l-1 4 8-1h20l20 4 6 2 60 1 1 54 12 19 6 10v2h2l4 8 282 1v-42l-16 2h-21l-38-2-23-2-25-1v-2l-21-2-17-2-3-1-2-5v-20l5-21 3-9 4-2 85-8-11-1-5 1h-25l-2-1v-3h66l4 2 1-6 10-27 14-39 14-40 3-10v-11l-397 1-6 10h-2l-2 4-10 9-9 16h-2l-5-6-2-1h-6l-5 2-1 4v10l5 9 3 4-3 22-4 17-6 12-2 1h-48l-16-6-14-8-10-8-7-8-6-10-4-13-3-12-2-9v-24l5-15 6-11 9-11 3-1v-2l14-10 16-8 16-5 15-2h11l15 2 6 2 1-10 4-6 3-2h8l7 4 8 9 4 10v13l5-2 7 1 5 5 1 5h382l13 4 8 5 1-5 3-7 8-14 4-5 6-5 5-5 14-7v-15l4-2 1-3 11-7 8-6 11-6 18-8z" fill="#D25572"/>
<path transform="translate(1292,911)" d="m0 0 3 1 54 72 7 9v2l19-4 11-3 26-6 23-5 19-5 4-1h8v-2l12-2 5-2 60-14h7l1-3 3 5 11 17 11 22 10 27 8 26 6 24 7 35 6 44 4 40 3 47 1 42v43l-2 64-3 50-6 65-6 51-7 50-9 54-5 25-11 1 3 28 1 4 1 13v16l-3 5-3 3-8 2h-43l-32-2-10-2-3-3-1-3v-11l4-9 6-8 9-6 8-6 3-1v-2h2l6-12 1-4h-8l-5-70-7-97-8-111-4-54-7-62-1-3-15 40-7 18-5 12-14 36-16 39-21 52-11 27-5 11-15 37-9 21-9 22-5 11-12 29-18 42h-10l1 20v33l-3 16h-51l-34-2-10-1-4-4-2-9 2-9 6-10 8-7 9-6 7-8 6-12 3-8-17-1-1-4 6-30 10-49 6-31 8-40v-299h1l1 289 20-100 19-94 5-25 1-20 1-50 3-1h10l1-9 7-32h-211v-2h-22l-3-1v-9l-3-13-7-11-1-1-4-41-1-12 148-1 11-3 9-6 7-8 4-9 1-3 1-68 7-10 9-15 13-24 13-28z" fill="#FCC35A"/>
<path transform="translate(611,1024)" d="m0 0h100l57 1 16 4 16 7 10 6 9 7v2l4 2 9 10 9 15 6 15 3 13 1 6v283l-6 12-4 4h-3v2l-4 1v2h41l12 6 6 7 3 5 1 4v14l-3 8-8 9-8 4-4 1h-86v19l-1 35-3 49-4 34-3 16h7l-5 36-3 15h-6l5 11 7 11 7 6 11 7 7 10 2 5v14l-3 5-3 2-34 2h-25v2l-2 1h-8l-4-1v-2h-12l-8-3-4-8v-15l1-9h-22v14l4 2 3 3 1 2v9l-4 6-5 2h-9l-5-5-2-3v-9l5-6 4-1v-14h-49v14l4 1 4 5 1 2v7l-3 5h-2l-1 3-2 1h-10l-6-5-1-2v-11l5-5 3-1v-14h-9v-20l2-1h55v-186l-1-12h-25l-4-4-1-2v-17h-95l-12-5-7-7-4-9v-16l6-11 7-6 7-3-10-4-7-6-5-9-1-3v-174h-60v529l-1 1h-47v-530h-88v-43h196v-69l5-21 8-16 10-14 10-10 14-10 14-7 16-5z" fill="#FCC35A"/>
<path transform="translate(1017,219)" d="m0 0h23l15 4 11 6 8 6 6 5 9 12 6 14 3 19 106 1v30l151 1v93l-4 1-90 1-20 12-19 12-15 9-2 3v139l7-14 7-9 8-8 10-7 14-7 10-3 15-3h14l14 2 12 5 10 6 4 3 6-1h16l8 3 10 9 5 10 4 12 4 15 8 16 7 6 8 3 4 1-2 4-11 8-16 8-7 2h-17l-9-3-3 13-4 11-4 5-13 8-15 7-11 4h-7l-18-6-16-8-8-5 2-5 3-11v-16l-6-7-8-1-5 3-2 3-1 12 3 8-1 3-13-13-2-3 2 6 5 10v2l-11-1-8-4-5-4-1 3-368-1v-20h-129v-111l135-1-6-1v-239h128l1-9 2-11 5-11 7-11 11-11 11-7 11-5z" fill="#CFE4ED"/>
<path transform="translate(1349,688)" d="m0 0h9l5 4 1 2 10-2h21l21 5 13 2 18 6 18 10 13 10 10 9 8 7 1 3 4 2 7 8 14 18 13 20 11 24 2 10v25l-4 17-8 20-4 8 1 4 6 17 4 9 7 20v5l-20 4-42 10-9 2-6 2h-7v2l-17 3-14 4-41 9-12 3-22 5h-4l-14-19-10-13-14-19-10-13-14-19-2-1-1 5-17 36-13 23-11 16-1 68-4 10-4 6-7 7-9 5-9 2h-148l2 12 3 29v11l-10-6-15-6-38-10-34-8-11-26-8-16-9-17v-3h281v-42l-16 2h-21l-38-2-23-2-25-1v-2l-21-2-17-2-3-1-2-5v-20l5-21 3-9 4-2 85-8-11-1-5 1h-25l-2-1v-3h66l4 2 1-6 10-27 14-39 14-40 3-10v-11l-397 1-6 10h-2l-2 4-10 9-9 16h-2l-5-6-2-1h-6l-5 2-1 4v10l5 9 3 4-3 22-4 17-6 12-2 1h-48l-16-6-14-8-10-8-7-8-6-10-4-13-3-12-2-9v-24l5-15 6-11 9-11 3-1v-2l14-10 16-8 16-5 15-2h11l15 2 6 2 1-10 4-6 3-2h8l7 4 8 9 4 10v13l5-2 7 1 5 5 1 5h382l13 4 8 5 1-5 3-7 8-14 4-5 6-5 5-5 14-7v-15l4-2 1-3 11-7 8-6 11-6 18-8z" fill="#5F6288"/>
<path transform="translate(880,1221)" d="m0 0h371l1 300-12 59-8 41-6 28-4 21v3l17 2-1 5-5 11-6 9-9 8-9 6-6 8-4 8h-105l-4-9-3-5-9-7-8-6-8-9-6-12v-4h5l5-34 3-17h-7l2-13 4-34 3-44 1-20v-101l-4-67-4-27-3-14-6-10-13-8-11-5-18-6-29-6-28-4-33-3-43-2z" fill="#FDFDFC"/>
<path transform="translate(832,797)" d="m0 0h397l1 12-14 41-26 72-3 8-4-1h-37l-29-1v3h27l9-1 12 1v1l-17 2-73 7-3 1-7 24-1 6v20l1 5 37 4 4 1v2h25l38 3 23 1h24l13-1v42h-282l-4-6v-3h-2l-10-17-9-14v-54h-60l-14-4-12-2h-28v-13l-2-6-1-40-8 11-9 6h-2v14l-11-1h-29l-13 1 2-1v-9l42-1 2-5 4-11 3-13 3-22-6-9-2-4v-10l2-4 5-3h6l7 6v2l3-3 7-13 12-11 1-2h2l2-5z" fill="#CFE3ED"/>
<path transform="translate(456,1221)" d="m0 0h60l1 174 4 9 5 6 14 7-11 6-6 8-3 6v16l5 10 7 6 10 4 95 1 1 17 2 4 2 1 25 1 2 12v187h-58v20h9v14l-3 1-161-1-1-1v-506z" fill="#FDFDFC"/>
<path transform="translate(852,1263)" d="m0 0h50l34 2 36 4 28 5 23 6 15 6 11 6 7 5 6 10 4 19 3 22 4 67v101l-3 52-4 39-4 20h7l-1 13-6 36-1 2h-5l4 10 6 10 7 7 9 6 6 5 5 9 2 5v11l-4 6-3 2-34 2h-51l-7-3-4-6-1-4v-9l3-27 2-12 1-11-24-1-5-35-2-15h8l-8-45-28-164v-2h-63l-41-1v-2l4-1v-2l5-3 3-4 4-9 1-131z" fill="#4F5272"/>
<path transform="translate(877,1417)" d="m0 0h61l3 13 20 117 13 77v4h-8l2 9 5 32v9h25l-2 19-3 22-1 10-1 1h-182l-6-12-3-3v-2l-4-2-11-7-7-8-6-11-2-7h6l1-11 4-25 2-13 1-2h-7l2-16 4-34 3-49 1-35 1-19 86-1 10-4 7-6 4-7 1-4v-14l-3-7-6-8-10-5z" fill="#FDFDFC"/>
<path transform="translate(1473,1283)" d="m0 0h1l3 24 5 43 9 122 8 112 6 83v15h8l-1 6-6 10h-2v2l-11 8-9 6-6 8-3 8h-173l-2-48 4-1 7 1 3-9 22-52 7-16 5-13 10-24 5-11 15-37 12-28 8-20 11-27 13-32 20-50 7-19 5-12 14-36z" fill="#FDFDFC"/>
<path transform="translate(630,1209)" d="m0 0h48l7 4 1 3h2l1 3v56l-3 6-7 5-9 1-1 187h119v19l-1 35-3 49-4 34-3 16h7l-5 36-3 15h-6l5 11 7 11 7 6 11 7 7 10 2 5v14l-3 5-3 2-34 2h-25v2l-2 1h-8l-4-1v-2h-12l-8-3-4-8v-15l1-9h-22v14l4 2 3 3 1 2v9l-4 6-5 2h-9l-5-5-2-3v-9l5-6 4-1v-14h-49v14l4 1 4 5 1 2v7l-3 5h-2l-1 3-2 1h-10l-6-5-1-2v-11l5-5 3-1v-14h-9v-20l2-1h55v-186l-1-12h-25l-4-4-1-2v-17h2v-188h-10l-5-3-4-6-1-3v-54l5-8z" fill="#222130"/>
<path transform="translate(1416,698)" d="m0 0h9l17 5 16 8 11 7 14 11 14 13v2l4 2 7 8 14 18 13 20 11 24 2 10v25l-4 17-8 20-4 8 1 4 6 17 4 9 7 20v5l-20 4-42 10-9 2-6 2h-7v2l-17 3-14 4-41 9-12 3-22 5h-4l-14-19-10-13-14-19-10-13-14-19-2-1-1 5-17 36-13 23-11 16-1 68-4 10-4 6-7 7-9 5-9 2h-148l2 12 3 29v11l-10-6-15-6-38-10-34-8-11-26-8-16-9-17v-3h281v-42l-16 2h-21l-38-2-23-2-25-1v-2l-21-2-17-2-3-1-2-5v-16l9-4 8-1h24l40 5 16 3 16 2h32l13-4 5-3 2-3h2l2-5 7-11 1-3h2l1-5 8-16 13-27 8-18h2l1-4 5-8h2l2-4 4-2 3 1 9 17v2h2l6 11 2 5h2l4 6v2h2l9 11 6 5v2l5 2 11 7 11 4h24l18-3 12-3 24-8 19-8 10-6 11-7h2v-2l10-8 7-8 1-2h2l2-5 7-14 2-11v-10l-7-16-13-29-7-16-12-24-14-25-10-15-8-9v-2l-5-2-11-7-8-4z" fill="#4F5272"/>
<path transform="translate(1292,911)" d="m0 0 3 1 54 72 8 11-2 13-5 26-20 99-8 40-2 5h-208v-1l14-1h8l-2-11-5-10-4-5-10-6-8-2h-17l-9 2-5-1-1-1-4-41-1-12 148-1 11-3 9-6 7-8 4-9 1-3 1-68 7-10 9-15 13-24 13-28z" fill="#FDFDFC"/>
<path transform="translate(320,1179)" d="m0 0h195l1 1v39l-1 1h-59v530l-1 1h-47v-530h-88z" fill="#C36C3B"/>
<path transform="translate(789,734)" d="m0 0h8l7 4 8 9 4 10v13l5-2 7 1 5 5 1 5h382l13 4 6 4-1 8-3 10h-1v-9h-398l-2 5-4 7h-2l-2 4-10 9-9 16h-2l-5-6-2-1h-6l-5 2-1 4v10l5 9 3 4-3 22-4 17-6 12-2 1h-48l-16-6-14-8-10-8-7-8-6-10-4-13-3-12-2-9v-24l5-15 6-11 9-11 3-1v-2l14-10 16-8 16-5 15-2h11l15 2 6 2 1-10 4-6z" fill="#6C3845"/>
<path transform="translate(880,1151)" d="m0 0 5 5 8 11 11 13 3 2v2l4 2 12 8 13 4h34l38-4 28-4 24-5 11-2 7-3h3v-2l3-2 25 1v2h211l-2 13-6 28-13 1v50l-1 20-11 55-21 104-13 65h-1v-294h-372z" fill="#C46D3B"/>
<path transform="translate(717,1025)" d="m0 0h51l16 4 16 7 10 6 9 7v2l4 2 9 10 9 15 6 15 3 13 1 6v283l-6 12-4 4h-3v2l-4 1v2h41l12 6 6 7 3 5 1 4v14l-3 8-8 9-8 4-4 1h-74v-1l10-3 7-6 5-8 1-3v-15l-3-8-6-7-10-5-4-1-18-1 4-2 8-6 5-8 2-5v-283l-3-16-3-9-6-13-7-11-12-13-12-9-14-8-11-4-16-3z" fill="#F39848"/>
<path transform="translate(1276,536)" d="m0 0h14l14 2 12 5 10 6 4 3 6-1h16l8 3 10 9 5 10 4 12 4 15 8 16 7 6 8 3 4 1-2 4-11 8-16 8-7 2h-17l-9-3-3 13-4 11-4 5-13 8-15 7-11 4h-7l-18-6-16-8-8-5 2-5 3-11v-16l-6-7-8-1-5 3-2 3-1 12 3 8-1 3-13-13-2-3 2 6 5 10v2l-11-1-8-4-6-5-6-12-1-5v-16l4-17 8-21 6-11 7-9 8-8 10-7 14-7 10-3z" fill="#6D3744"/>
<path transform="translate(452,744)" d="m0 0h12l8 4 8 9 4 6 16 15 12 12 10 9 6 5 15 15 8 7 7 7 1 2v9l-3 5-9 9-14 10-5 3h-2v2l-16 8-11 5h-11l-5-6-11-27-11-28-8-21-4 2-15 15-8 7-11 11-8 7-12 12-8 7-13 13-8 7-11 11-6 5 1 7 1 4v11l-4 11-6 8 8 16 11 23 9 19 8 16 12 25 9 19 8 15 9 20 9 17 8 18 9 17 3 7v3h56v19h-118v-19h45l-8-16-25-51-12-25-14-29-26-53-12-25-4-8-12-1-12-5-6-5-5-8-2-6v-14l3-9 9-10 8-4 3-1h16l8 3 10-9 7-6 2-3h2l1-3 8-7 12-11 9-9 8-7 12-12 8-7 16-16h2v-2l8-7 4-4-2-4-5-7-2-7v-7l3-7 4-6z" fill="#61648A"/>
<path transform="translate(891,1263)" d="m0 0 32 1 33 3 28 4 29 6 21 7 15 8 7 5 6 10 4 19 3 22 2 30v9l-21 4-34 4h-32l-16-3-16-5-16-8-10-7v-2l-4-2-5-5-8-9-5-7v-3h-2l-6-15-3-9-3-15-1-13v-12l1-16z" fill="#606389"/>
<path transform="translate(1174,317)" d="m0 0h181v93l-4 1-90 1-20 12-19 12-26 16h-3l10-18 9-16 3-5v-2h-40l-3-1v-92z" fill="#D35672"/>
<path transform="translate(722,1474)" d="m0 0h66v19l-1 35-3 49-4 34-3 16h7l-5 36-3 15h-64l-1 15-1 2-17 1v-199l24-1 4-4 1-16z" fill="#4F5171"/>
<path transform="translate(704,527)" d="m0 0h160l1 2v93l-1 17h-31l-129-1z" fill="#FCC35C"/>
<path transform="translate(626 1e3)" d="m0 0 4 1 42 1 72 1 35 1 20 4 13 5 14 8v2l4 2 5 4 5 6v2h2l11 18 13 24 4 6v2h2l8 13 6 11 8 14 11 18 5 6v2h2l6 7 5 4 10 5 8 2 11 1 32 1h40l23-2 15-3 10-4 3-3h2l2-5 3-1 3 13-1 10-3 1v2l-9 3-1 1-15 3-32 6-32 4-22 2h-34l-13-4-12-8-12-11-11-14-7-10-1 111-29 1-1-152-3-16-6-16-8-14-11-13-3-2v-2l-4-2-8-6-15-8-15-5-9-2-57-1-93-1 1-9 2-9z" fill="#B9425D"/>
<path transform="translate(1248,992)" d="m0 0h1v67l-4 10-4 6-7 7-9 5-9 2h-148l2 12 3 29v11l-10-6-15-6-38-10-34-8-11-26-8-16-9-17v-3h282v-43l4-1 9-6z" fill="#292B3C"/>
<path transform="translate(1017,219)" d="m0 0h23l15 4 11 6 8 6 6 5 9 12 6 14 2 10v21l-4 15-7 13-9 11-14 10-11 5-12 3h-20l-16-4-13-7-12-11-6-7-8-16-3-12v-20l2-11 5-11 7-11 11-11 11-7 11-5z" fill="#606389"/>
<path transform="translate(320,1179)" d="m0 0h195l1 1v39l-1 1h-59l-1 51-47-1v-49h-88z" fill="#C36C3B"/>
<path transform="translate(826,850)" d="m0 0h95l1 1v89l-1 1h-95z" fill="#ACBACE"/>
<path transform="translate(1252,1217)" d="m0 0h45l2 1v53l-1 20-11 55-21 104-13 65h-1l-1-296z" fill="#C36C3B"/>
<path transform="translate(936,479)" d="m0 0h214v37h-214z" fill="#606389"/>
<path transform="translate(936,421)" d="m0 0h214v37h-214z" fill="#606389"/>
<path transform="translate(481,763)" d="m0 0 4 1 15 14 12 12 10 9 6 5 15 15 8 7 7 7 1 2v9l-3 5-9 9-14 10-5 3h-2v2l-16 8-11 5h-11l-5-6-11-27-11-28-9-23-5-13 1-5 18-11 8-6z" fill="#292B3C"/>
<path transform="translate(1550,948)" d="m0 0 4 5 11 17 11 22 10 27 1 5-6-1-19-7-19-5-27-5-36-4h-58l-33 3-27 4h-7l1-11 1-3 18-4 11-3 26-6 23-5 19-5 4-1h8v-2l12-2 5-2 60-14h7z" fill="#F39848"/>
<path transform="translate(827,812)" d="m0 0 382 1 1 3v16h-384v-19z" fill="#FCFCFB"/>
<path transform="translate(834,780)" d="m0 0h387l10 4 4 3-1 8-3 10h-1v-9h-398l1-8h2z" fill="#292B3C"/>
<path transform="translate(1239,1676)" d="m0 0h10l50 5 2 4 1 17v33l-3 16h-51l-34-2-10-1-4-4-2-9 2-9 6-10 8-7 9-6 7-8 6-12z" fill="#D25572"/>
<path transform="translate(998,1678)" d="m0 0h57l10 19 8 8 9 6 6 5 5 9 2 5v11l-4 6-3 2-34 2h-51l-7-3-4-6-1-4v-9l3-27 2-12 1-11z" fill="#2A2C3D"/>
<path transform="translate(1559,1680)" d="m0 0h12l4 28 1 4 1 13v16l-3 5-3 3-8 2h-43l-32-2-10-2-3-3-1-3v-11l4-9 6-8 9-6 8-6 3-1v-2h2l8-16z" fill="#D25572"/>
<path transform="translate(630,1209)" d="m0 0h48l7 4 1 3h2l1 3v56l-3 6-7 5-9 1-1 11h-1l-2-11h-25v187l-2 1v-189h-10l-5-3-4-6-1-3v-54l5-8z" fill="#221F2D"/>
<path transform="translate(1040,928)" d="m0 0h12l9 7 6 4 3 9-5 18-1 6-1 19-4 2-18 4h-12l-5-2-5-6v-2l-85-1v-31l62-1 6-2 12-7 17-11z" fill="#F2B6A7"/>
<path transform="translate(769,1677)" d="m0 0 2 3 4 9 7 11 7 6 11 7 7 10 2 5v14l-3 5-3 2-34 2h-25v2l-2 1h-8l-4-1v-2h-12l-8-3-4-8v-15l1-9h41v-20h-31l-5-1-1 1h-17v-1h16l2-17z" fill="#2A2C3E"/>
<path transform="translate(659,1286)" d="m0 0 7 1 2 6-1 179-3 4v-2h-23v-187z" fill="#282A3B"/>
<path transform="translate(779,842)" d="m0 0 3 4 5 9 3 4-3 22-4 17-6 12-2 1h-48l-16-6-14-8-10-8-7-8-6-10-4-13-3-12 1-3v2h2l6 9 10 7 14 5 12 2h16l14-3 18-7 5-4h3v-2l10-7z" fill="#542734"/>
<path transform="translate(1061,1626)" d="m0 0 8 1-1 13-6 36-1 2h-5l-1 2v-2h-82l-5-35-2-15 87-1z" fill="#7E819D"/>
<path transform="translate(776,1626)" d="m0 0 8 1-5 36-3 15h-64l-1 15-1 2-17 1v-68l38-1h42z" fill="#7E819D"/>
<path transform="translate(1308,614)" d="m0 0 7 5 9 2 2 5 2 4h2v2h2l4 4v2l5 2 7 4-2 12-5 13-4 5-13 8-15 7-11 4h-7l-18-6-16-8-8-5 2-5 3-11v-19l1 2h25l11-2 8-6 4-5 4-11z" fill="#542733"/>
<path transform="translate(786,1515)" d="m0 0h1v13l-3 49-4 34-3 15-4 2h-42l-4-2 1-10h2l2-12 2-5h2v-7l3-4 1-6h2v-6l2-5h2l1-7 2-4h2l1-8h2l2-7 3-5 1-4h2v-2h2l2-5 7-9 4-3h6z" fill="#5F6288"/>
<path transform="translate(452,744)" d="m0 0h12l8 4 8 9 3 6-12 7-10 7-13 8 1 6 4 11-19 19-8 7-11 11-8 7-12 12-8 7-13 13-8 7-11 11-6 5-2 3-6-8-5-4 1-3 16-14 2-3h2l1-3 8-7 12-11 9-9 8-7 12-12 8-7 16-16h2v-2l8-7 4-4-2-4-5-7-2-7v-7l3-7 4-6z" fill="#616489"/>
<path transform="translate(968,1088)" d="m0 0 99 1 2 3 4 38v11l-10-6-15-6-38-10-34-8-8-19z" fill="#221F2D"/>
<path transform="translate(1546,1149)" d="m0 0 1 3-5 16-12 36-10 32-8 24-13 40-12 38-4 13-2-1-7-62v-8l6-11 11-20 12-22 9-16 4-8 9-16 12-22 2-5h2l1-4z" fill="#F39948"/>
<path transform="translate(312,887)" d="m0 0h16l10 5 7 7 5 9 1 4v11l-4 11-7 8-12 6h-17l-10-5-5-4-5-8-2-6v-14l3-9 9-10 8-4z" fill="#2A2B3D"/>
<path transform="translate(1240,633)" d="m0 0 8 1 7 8v16l-3 11-3 5 5 2 11 6 16 7 10 3h7l20-8 16-8-2 5 1 5 1 7-17 7-12 6-8 5-4-6v-2l-9 2h-12l-10-3-10-6-10-9v-2l-3-1-10-14-6-10-5-11 1-3 11 12 4 4-3-10 1-12 5-6z" fill="#F2B6A5"/>
<path transform="translate(1252,1217)" d="m0 0h45l2 1-1 4v48h-46l-1-51z" fill="#B9425D"/>
<path transform="translate(408,1217)" d="m0 0h47v54l-46-1z" fill="#B9425D"/>
<path transform="translate(934,955)" d="m0 0h62v6l3 2h17v15l1 8h-83z" fill="#D25472"/>
<path transform="translate(810,823)" d="m0 0 2 1 2 13v19l-3 18-3 10-6 11-6 7-8 5h-2v14l-11-1h-29l-13 1 2-1v-9l42-1 2-5 4-11 3-13 3-22-6-9-2-4v-10l2-4 5-3h6l7 6v2l3-3z" fill="#F2B6A6"/>
<path transform="translate(382,1157)" d="m0 0h118v19h-118z" fill="#292B3C"/>
<path transform="translate(1041,536)" d="m0 0h109v19h-109z" fill="#ACBACE"/>
<path transform="translate(1088,1141)" d="m0 0h17l10 3 10 7 7 11 2 6v8l-2 1h189v2h-212v-2h-22l-3-1v-9l-3-13-5-8v-2z" fill="#F3B6A7"/>
<path transform="translate(934 1e3)" d="m0 0h84v19h-85z" fill="#606388"/>
<path transform="translate(899,479)" d="m0 0h37v37h-37z" fill="#FEFEFD"/>
<path transform="translate(899,421)" d="m0 0h37v37h-37z" fill="#FEFEFD"/>
<path transform="translate(452,744)" d="m0 0h12l8 4 8 9 3 6-12 7-10 7-13 8-2 2-8-11-2-7v-7l3-7 4-6z" fill="#606388"/>
<path transform="translate(864,955)" d="m0 0h58v52l-4-4-6-8-3-5-12-13-1-3-5-2-9-7-12-7-6-2z" fill="#616489"/>
<path transform="translate(648,1228)" d="m0 0h10l9 4 5 8v16l-5 8-9 3h-10l-6-3v-2h-2l-3-6v-16l3-8z" fill="#292B3C"/>
<path transform="translate(1014,290)" d="m0 0 5 1 5 2h10l9-3 10 3 4 5 1 3v7l-4 4h-51l-3-3v-9l3-5 4-3z" fill="#FAFBFB"/>
<path transform="translate(1024,255)" d="m0 0h9l7 3 5 6 2 5v8l-4 8-7 5-3 1h-7l-7-3-5-4-3-6v-10l3-6 7-6z" fill="#F9FAFB"/>
<path transform="translate(1203,597)" d="m0 0 1 2v12l3 13 8 16 7 15 4 8v2l-11-1-8-4-6-5-6-12-1-5v-16l4-17 3-6z" fill="#552936"/>
<path transform="translate(707,1716)" d="m0 0h34l1 13-11 1-3 3h-2l-2 13 3 3v2h-9l-8-3-4-8v-15z" fill="#2B2D3F"/>
<path transform="translate(316,902)" d="m0 0h7l6 3 5 6 1 2v10l-4 6-7 4h-8l-8-4-3-5-1-9 3-7 4-4z" fill="#5E6186"/>
<path transform="translate(934,891)" d="m0 0h82l2 1v8h-83l-1-1z" fill="#ACBACE"/>
<path transform="translate(934,933)" d="m0 0h84v8h-84z" fill="#ACB9CE"/>
<path transform="translate(934,912)" d="m0 0h84v8h-84z" fill="#ACBACE"/>
<path transform="translate(934,871)" d="m0 0h84v8h-84z" fill="#606389"/>
<path transform="translate(934,850)" d="m0 0h84v8h-84z" fill="#5F6288"/>
<path transform="translate(794,550)" d="m0 0h6l1 2-6 17-10 26-6 16-3 3h-8l1-6 9-24 12-31z" fill="#FEFEFD"/>
<path transform="translate(620,1716)" d="m0 0h8v14l4 1 4 5 1 2v7l-3 5h-2l-1 3-2 1h-10l-6-5-1-2v-11l5-5 3-1z" fill="#242333"/>
<path transform="translate(677,1716)" d="m0 0h8v14l4 2 3 3 1 2v9l-4 6-5 2h-9l-5-5-2-3v-9l5-6 4-1z" fill="#232332"/>
<path transform="translate(629,1716)" d="m0 0h47v13h-47z" fill="#FEFEFD"/>
<path transform="translate(801,564)" d="m0 0 19 9 12 7 1 1v5l-19 10-11 6h-2v-10l15-9-15-8z" fill="#FEFEFD"/>
<path transform="translate(766,564)" d="m0 0h1v11l-15 8 15 9v10l-6-2-25-13-1-1v-5l8-5z" fill="#FEFEFD"/>
<path transform="translate(731,1729)" d="m0 0 13 1 5 5 1 3v9h-2v3l-4 1v2l-2 1h-8l-4-1v-2h-3l-2-3-3-2h2v-8l2-5z" fill="#201F2D"/>
<path transform="translate(1013,1058)" d="m0 0h9l6 4 2 5-1 9-2 4-7 3-9-1-5-5-1-3v-7l3-6z" fill="#201F2D"/>
<path transform="translate(784,907)" d="m0 0h2v14l-11-1h-29l-13 1 2-1v-9l40-1z" fill="#F2B6A6"/>
<path transform="translate(1314,567)" d="m0 0 1 2-3 8v15l4 15 5 12v2l-6-1-6-5-5-7-2-7v-15l3-9 2-4h2l2-4z" fill="#F9BB58"/>
<path transform="translate(804,891)" d="m0 0h1v37l-13-5-6-1v-15l10-6z" fill="#2D2A3B"/>
<path transform="translate(547,857)" d="m0 0 2 2v10l-4 8-5 4-4 2h-13l-7-5 5-4 5-1v-2l10-6z" fill="#F9BE60"/>
<path transform="translate(1299,1221)" d="m0 0h13l-5 27-7 33h-1z" fill="#FEFEFD"/>
<path transform="translate(693,1678)" d="m0 0h19l-1 15-1 2-17 1z" fill="#F9FBFB"/>
<path transform="translate(880,1151)" d="m0 0 5 5 8 11 8 10v2h-20l-1-1z" fill="#F9F0EE"/>
<path transform="translate(685,1716)" d="m0 0h22v9l-1 5-19 1-2-1z" fill="#F9FBFB"/>
<path transform="translate(1221,355)" d="m0 0 6 1 3 3 1 7-3 5-3 2h-6l-5-3-1-2v-8h2l2-4z" fill="#FCF7F4"/>
<path transform="translate(1107,890)" d="m0 0h62l1 4h-64z" fill="#FBC264"/>
<path transform="translate(1304,355)" d="m0 0 5 1 4 4v8l-5 5h-7l-5-5v-8l2-3z" fill="#FCF7F5"/>
<path transform="translate(1261,355)" d="m0 0 7 1 4 5-1 7-3 4-8 1-5-5-1-6 4-6z" fill="#FCF8F6"/>
<path transform="translate(1072,871)" d="m0 0h44l2 1-2 4h-44l-1-4z" fill="#F8BE7B"/>
<path transform="translate(936,986)" d="m0 0h80l3 1 2 4 3 2v2l5 1h12l15-3h4l-3 1v2l-18 3-14-1-2-4-4-2-1-4h-82z" fill="#FEFEFD"/>
<path transform="translate(1215,410)" d="m0 0 1 3-10 18-3 1 1-10v-11z" fill="#FCF7F5"/>
<path transform="translate(1142,853)" d="m0 0h43l2 1-1 2h-46l1-2z" fill="#7E819D"/>
<path transform="translate(784,907)" d="m0 0h2v14l-10-1v-10l5-2z" fill="#FDFDFC"/>
<path transform="translate(1136,1019)" d="m0 0h24v4l-6 1h-17z" fill="#F9BE79"/>
<path transform="translate(1075,890)" d="m0 0h28v4h-29z" fill="#2E2E42"/>
<path transform="translate(1076,928)" d="m0 0h37l2 2-1 1h-38z" fill="#7E819D"/>
<path transform="translate(1117,928)" d="m0 0h29v3l-2 1h-25l-2-1z" fill="#D1576D"/>
<path transform="translate(620,1716)" d="m0 0h8v14h-8z" fill="#5A5D82"/>
<path transform="translate(1109,1019)" d="m0 0h25l1 4h-27z" fill="#232331"/>
<path transform="translate(677,1716)" d="m0 0h8v14l-8-1z" fill="#535678"/>
<path transform="translate(733,1716)" d="m0 0h8l1 13h-9z" fill="#5C5F84"/>
<path transform="translate(1148,928)" d="m0 0h35l1 2-16 2-22-1z" fill="#8286A1"/>
<path transform="translate(1163,1020)" d="m0 0h34v2l-3 1h-28l-3-1z" fill="#7E819D"/>
<path transform="translate(1120,872)" d="m0 0h32l-1 3h-31z" fill="#D25571"/>
<path transform="translate(1088,853)" d="m0 0h27l3 1v2h-32v-2z" fill="#7E819D"/>
<path transform="translate(1107,890)" d="m0 0h21v4h-22z" fill="#D1566E"/>
<path transform="translate(622 1e3)" d="m0 0 2 2v16l-1 1h-5l1-9 2-9z" fill="#D35A71"/>
<path transform="translate(865,818)" d="m0 0h6l2 2 1 5-3 4-4-1v-2l-3-1v-6z" fill="#CFE3ED"/>
<path transform="translate(1121,853)" d="m0 0h18l-1 4h-16z" fill="#313145"/>
<path transform="translate(1090,1019)" d="m0 0h16l1 2-1 2h-17z" fill="#BF667E"/>
<path transform="translate(1052,928)" d="m0 0 4 1 4 2v-3h2l1 3 9 1v1h-10l1 2 5 3 3 5-2 4-2-8-5-2-7-6z" fill="#FEFEFD"/>
<path transform="translate(1178,872)" d="m0 0h22v3h-22z" fill="#D0556D"/>
<path transform="translate(1069,869)" d="m0 0 48 1 1 2h-46v4l-3-1-1-4z" fill="#FEFEFD"/>
<path transform="translate(1154,872)" d="m0 0h21l-1 3h-20z" fill="#7E819D"/>
<path transform="translate(1172,890)" d="m0 0h14v4h-15z" fill="#352F41"/>
<path transform="translate(1084,1176)" d="m0 0 25 1v2h-27z" fill="#F49948"/>
<path transform="translate(850,819)" d="m0 0h5l2 2-1 5-5 1-3-5z" fill="#FAC06F"/>
<path transform="translate(834,819)" d="m0 0h5l2 2-1 6-7-1z" fill="#CE5B67"/>
<path transform="translate(684,1716)" d="m0 0h1v14l-4-2-1-3-2 1v-7l6-1z" fill="#676A8E"/>
<path transform="translate(739,1716)" d="m0 0h2l1 13h-9l2-4 3-1z" fill="#4F5272"/>
<path transform="translate(1036,928)" d="m0 0 4 1-18 12-5 3-2-1 6-5 14-8z" fill="#FEFEFD"/>
<path transform="translate(783,1566)" d="m0 0h1v6l-1 1-1 7-2-1-1-4h-3l3-6 3-1z" fill="#4F5272"/>
<path transform="translate(1062,928)" d="m0 0h10l1 2-1 2h-9z" fill="#F8BE7B"/>
<path transform="translate(769,1584)" d="m0 0h6v8l-5-2-2-5z" fill="#4F5272"/>
<path transform="translate(867,819)" d="m0 0 4 1 1 3-2 4-4-1-1-3z" fill="#8084A0"/>
<path transform="translate(528,866)" d="m0 0h5v2l-5 3h-2v2l-5 2-3-1 8-5h2z" fill="#382530"/>
<path transform="translate(792,839)" d="m0 0 6 1v2h-3l-2 5 1 6h-2l-1-5z" fill="#F49948"/>
<path transform="translate(1578,1747)" d="m0 0 5 1-1 3-3 2h-4l-1-3z" fill="#ACBACE"/>
<path transform="translate(1012,944)" d="m0 0 3 1-7 5-7 4h-6l3-2 10-5z" fill="#FEFEFD"/>
<path transform="translate(1044,909)" d="m0 0h8v4h-8z" fill="#ACBACE"/>
<path transform="translate(1149,930)" d="m0 0 16 1v1l-17 2-3-1z" fill="#CCDFEA"/>
<path transform="translate(1068,853)" d="m0 0h8l1 3-8 1-2-1z" fill="#ACBACE"/>
<path transform="translate(1109,1019)" d="m0 0h25v1l-23 1-1 2h-2z" fill="#4F516F"/>
<path transform="translate(834,780)" d="m0 0h5l-3 11-2 2z" fill="#20202E"/>
<path transform="translate(1297,1746)" d="m0 0h2v5h-18v-1l14-1z" fill="#C36C3B"/>
<path transform="translate(1089 1e3)" d="m0 0 4 1v3h-9l1-3z" fill="#ADBBCF"/>
<path transform="translate(620,1716)" d="m0 0 4 1 1 2-4 1v8l2 1-3 1z" fill="#525577"/>
<path transform="translate(1060,890)" d="m0 0 7 1v3h-8z" fill="#ACBACE"/>
<path transform="translate(1051,872)" d="m0 0h9v3h-9z" fill="#ACBACE"/>
<path transform="translate(555,831)" d="m0 0 4 4v2h-2l-1 2h-3v-4z" fill="#313246"/>
</svg>
